# File created by Blade
# Date/Time:  Thu Jan 22 19:24:19 2015
# Frame Rate: 120.000 fps
#------------------------------------------------------
:FULLY-SPECIFIED
:DEGREES
4041
root -1.049260 33.061083 -0.907296 2.540986 -23.571210 6.152901
RightUpLeg -4.092752 -9.352468 -2.579569
RightLeg 14.592029 -0.000000 -0.000000
RightFoot -17.874140 -21.809082 -10.840754
RightToeBase 4.802684 -0.000000 -0.000000
LeftUpLeg -11.282758 1.406367 -2.593591
LeftLeg 25.447136 -0.000000 -0.000000
LeftFoot -15.475055 7.327890 -24.600783
LeftToeBase 0.173748 -0.000000 -0.000000
Spine -6.225315 13.778446 -2.166843
RightShoulder -12.034633 -15.854668 -16.299444
RightArm 30.361755 -20.743880 58.920210
RightForeArm 15.160914 -0.000000 48.069128
RightHand 17.003113 -0.000000 12.643788
RightHandThumb1 -24.326973 -0.000000 -32.862282
LeftShoulder -26.106642 6.120132 24.518904
LeftArm 15.747048 -28.274784 -45.424149
LeftForeArm 15.908549 0.000000 4.586950
LeftHand 0.838207 -0.000000 0.487269
LeftHandThumb1 -26.253704 0.000000 33.147579
Head -1.890681 26.491244 -9.618707
4042
root -0.946866 33.045919 -0.819105 2.773878 -23.148325 6.147065
RightUpLeg -4.392222 -9.768279 -2.758403
RightLeg 15.068188 -0.000000 -0.000000
RightFoot -18.166864 -21.910176 -10.783078
RightToeBase 4.953615 -0.000000 -0.000000
LeftUpLeg -10.482913 1.891728 -2.913609
LeftLeg 23.466961 -0.000000 -0.000000
LeftFoot -15.735454 7.278372 -23.814796
LeftToeBase 1.230075 -0.000000 -0.000000
Spine -6.660828 13.273393 -2.118985
RightShoulder -12.350242 -16.157658 -15.997648
RightArm 29.997449 -20.566995 59.210053
RightForeArm 15.010608 -0.000000 48.148153
RightHand 16.995975 -0.000000 12.271492
RightHandThumb1 -24.326973 -0.000000 -32.862282
LeftShoulder -26.129488 6.233469 24.333849
LeftArm 15.779046 -28.340483 -46.030947
LeftForeArm 15.816080 -0.000000 4.916483
LeftHand 0.866563 -0.000000 0.733384
LeftHandThumb1 -26.253704 0.000000 33.147579
Head -1.569699 26.382254 -9.474676
4043
root -0.842661 33.033821 -0.732183 2.940619 -22.578502 6.173646
RightUpLeg -4.626721 -10.403981 -2.969117
RightLeg 15.563740 -0.000000 -0.000000
RightFoot -18.436695 -21.986099 -10.808630
RightToeBase 5.089116 -0.000000 -0.000000
LeftUpLeg -9.815580 2.235335 -3.272183
LeftLeg 21.803904 -0.000000 -0.000000
LeftFoot -15.836227 7.200600 -22.854426
LeftToeBase 2.354210 -0.000000 -0.000000
Spine -7.002693 12.662288 -2.079068
RightShoulder -12.689187 -16.422518 -15.741139
RightArm 29.551195 -20.424694 59.597779
RightForeArm 14.926678 -0.000000 48.234120
RightHand 17.080108 0.000000 11.785276
RightHandThumb1 -24.326973 -0.000000 -32.862282
LeftShoulder -26.138609 6.378222 24.113786
LeftArm 15.892213 -28.352062 -46.680766
LeftForeArm 15.589315 -0.000000 5.174064
LeftHand 0.920761 -0.000000 0.899154
LeftHandThumb1 -26.253704 0.000000 33.147579
Head -1.350047 26.106387 -9.385512
4044
root -0.734258 33.030672 -0.657085 3.123996 -21.940071 6.256786
RightUpLeg -4.734482 -10.254919 -3.205857
RightLeg 15.714790 -0.000000 -0.000000
RightFoot -18.441848 -22.700555 -10.692260
RightToeBase 5.352593 -0.000000 -0.000000
LeftUpLeg -9.220761 1.918347 -3.637529
LeftLeg 20.138003 -0.000000 -0.000000
LeftFoot -15.830866 7.394701 -22.188808
LeftToeBase 3.312207 -0.000000 -0.000000
Spine -7.350808 12.000147 -2.095628
RightShoulder -13.019167 -16.728317 -15.473584
RightArm 29.107392 -20.180204 60.074674
RightForeArm 14.751887 -0.000000 48.313887
RightHand 17.019694 -0.000000 11.268611
RightHandThumb1 -24.326973 -0.000000 -32.862282
LeftShoulder -26.153475 6.503731 23.851492
LeftArm 15.982168 -28.173523 -47.277374
LeftForeArm 15.067885 -0.000000 5.485848
LeftHand 1.012611 -0.000000 1.204305
LeftHandThumb1 -26.253704 0.000000 33.147579
Head -1.115521 25.927085 -9.289258
